<?xml version="1.0"?>
<svg xmlns="http://www.w3.org/2000/svg" xmlns:xlink="http://www.w3.org/1999/xlink" xmlns:svgjs="http://svgjs.com/svgjs" version="1.1" width="512" height="512" x="0" y="0" viewBox="0 0 497.401 497.401" style="enable-background:new 0 0 512 512" xml:space="preserve" class=""><g>
<g xmlns="http://www.w3.org/2000/svg">
	<g>
		<g>
			<path style="" d="M478.742,154.382H320.714c28.366,21.765,47.111,55.717,47.111,94.307     c0,30.63-14.345,56.386-30.933,79.445c-28.322,39.41-95.817,168.878-95.817,168.878c2.567,0.043,5.026,0.388,7.636,0.388     c137.341,0,248.69-111.348,248.69-248.69C497.379,215.298,490.692,183.481,478.742,154.382z" fill="#ffffff" data-original="#010002" class=""/>
			<path style="" d="M248.172,129.619c54.402-0.388,217.628-2.049,217.628-2.049C423.24,51.511,342.069,0,248.69,0     C170.819,0,101.361,35.829,55.782,91.848l75.972,134.925C142.022,171.66,190.103,130.029,248.172,129.619z" fill="#ffffff" data-original="#010002" class=""/>
			<path style="" d="M248.668,367.825c-51.964,0-91.568-35.117-111.974-79.855     c-20.535-45.018-98.061-171.984-98.061-171.984C14.301,154.425,0,199.832,0,248.69c0,124.744,91.935,227.744,211.696,245.648     l77.288-134.019C276.343,364.934,262.883,367.825,248.668,367.825z" fill="#ffffff" data-original="#010002" class=""/>
			<circle style="" cx="248.668" cy="248.711" r="80.416" fill="#ffffff" data-original="#010002" class=""/>
		</g>
	</g>
	<g>
	</g>
	<g>
	</g>
	<g>
	</g>
	<g>
	</g>
	<g>
	</g>
	<g>
	</g>
	<g>
	</g>
	<g>
	</g>
	<g>
	</g>
	<g>
	</g>
	<g>
	</g>
	<g>
	</g>
	<g>
	</g>
	<g>
	</g>
	<g>
	</g>
</g>
<g xmlns="http://www.w3.org/2000/svg">
</g>
<g xmlns="http://www.w3.org/2000/svg">
</g>
<g xmlns="http://www.w3.org/2000/svg">
</g>
<g xmlns="http://www.w3.org/2000/svg">
</g>
<g xmlns="http://www.w3.org/2000/svg">
</g>
<g xmlns="http://www.w3.org/2000/svg">
</g>
<g xmlns="http://www.w3.org/2000/svg">
</g>
<g xmlns="http://www.w3.org/2000/svg">
</g>
<g xmlns="http://www.w3.org/2000/svg">
</g>
<g xmlns="http://www.w3.org/2000/svg">
</g>
<g xmlns="http://www.w3.org/2000/svg">
</g>
<g xmlns="http://www.w3.org/2000/svg">
</g>
<g xmlns="http://www.w3.org/2000/svg">
</g>
<g xmlns="http://www.w3.org/2000/svg">
</g>
<g xmlns="http://www.w3.org/2000/svg">
</g>
</g></svg>
