<?xml version="1.0"?>
<svg xmlns="http://www.w3.org/2000/svg" xmlns:xlink="http://www.w3.org/1999/xlink" xmlns:svgjs="http://svgjs.com/svgjs" version="1.1" width="512" height="512" x="0" y="0" viewBox="0 0 396 396" style="enable-background:new 0 0 512 512" xml:space="preserve" class=""><g><path xmlns="http://www.w3.org/2000/svg" d="m363 82.699219h-146.300781c-2.410157.003906-4.820313-.195313-7.199219-.597657-.832031.316407-1.710938.488282-2.601562.5h-206.898438v229.898438c.0195312 18.21875 14.78125 32.980469 33 33h330c18.21875-.019531 32.980469-14.78125 33-33v-196.800781c-.019531-18.21875-14.78125-32.980469-33-33zm0 0" fill="#ffffff" data-original="#000000" style="" class=""/><path xmlns="http://www.w3.org/2000/svg" d="m175 57.398438-20.601562-39.597657c-5.644532-10.964843-16.964844-17.8437498-29.296876-17.800781h-92.101562c-18.21875.0195312-32.9804688 14.78125-33 33v35.699219h183.199219c-3.261719-3.351563-6.019531-7.160157-8.199219-11.300781zm0 0" fill="#ffffff" data-original="#000000" style="" class=""/></g></svg>
