<?xml version="1.0"?>
<svg xmlns="http://www.w3.org/2000/svg" xmlns:xlink="http://www.w3.org/1999/xlink" xmlns:svgjs="http://svgjs.com/svgjs" version="1.1" width="512" height="512" x="0" y="0" viewBox="0 0 448 448.24169" style="enable-background:new 0 0 512 512" xml:space="preserve"><g><path xmlns="http://www.w3.org/2000/svg" d="m95.632812 416.242188c0 4.417968-3.582031 8-8 8-4.421874 0-8-3.582032-8-8 0-4.417969 3.578126-8 8-8 4.417969 0 8 3.582031 8 8zm0 0" fill="#fffbfb" data-original="#000000" style=""/><path xmlns="http://www.w3.org/2000/svg" d="m367.632812 344.242188h-32c-4.421874 0-8-3.582032-8-8 0-4.417969 3.578126-8 8-8h40c4.242188.007812 8.3125-1.683594 11.300782-4.695313 3.316406-3.265625 5.015625-7.828125 4.640625-12.464844-1.097657-8.65625-8.578125-15.074219-17.304688-14.839843h-38.636719c-4.421874 0-8-3.582032-8-8 0-4.417969 3.578126-8 8-8h32c4.242188.007812 8.3125-1.683594 11.300782-4.695313 3.316406-3.265625 5.015625-7.828125 4.640625-12.464844-1.097657-8.65625-8.578125-15.074219-17.304688-14.839843h-78.636719c-8.839843 0-16-7.164063-16-16v-64c0-13.253907-10.746093-24-24-24h-8v24c-.050781 44.164062-35.839843 79.949218-80 80h-24v176h216c8.835938 0 16-7.164063 16-16 0-8.835938-7.164062-16-16-16h-16c-4.421874 0-8-3.582032-8-8 0-4.417969 3.578126-8 8-8h32c8.835938 0 16-7.164063 16-16 0-8.835938-7.164062-16-16-16zm0 0" fill="#fffbfb" data-original="#000000" style=""/><path xmlns="http://www.w3.org/2000/svg" d="m119.632812 432.242188v-208h-64v224h64zm-32 8c-13.257812 0-24-10.746094-24-24 0-13.253907 10.742188-24 24-24 13.253907 0 24 10.746093 24 24 0 13.253906-10.746093 24-24 24zm0 0" fill="#fffbfb" data-original="#000000" style=""/><path xmlns="http://www.w3.org/2000/svg" d="m421.847656 152.683594c-16.410156-16.277344-38.601562-25.382813-61.710937-25.320313h-.722657c-.800781 0-1.445312 0-2.175781.046875-2.550781.207032-5.046875-.820312-6.714843-2.761718-1.667969-1.941407-2.304688-4.5625-1.714844-7.054688 1.6875-7.261719 2.496094-14.703125 2.398437-22.160156-.3125-53.019532-43.546875-95.746094-96.566406-95.433594-42.28125.421875-79.347656 28.351562-91.410156 68.875-.777344 2.671875-2.890625 4.75-5.578125 5.480469s-5.5625.011719-7.589844-1.898438c-10.484375-10.121093-24.539062-15.691406-39.113281-15.496093-30.90625.277343-55.757813 25.515624-55.558594 56.425781.015625 8.386719 1.949219 16.65625 5.648437 24.183593 1.042969 2.101563 1.113282 4.550782.1875 6.707032-.921874 2.15625-2.746093 3.800781-4.988281 4.492187-30.214843 9.476563-52.007812 35.871094-55.601562 67.332031-3.589844 31.460938 11.691406 62.085938 38.996093 78.132813v-77.992187c0-4.417969 3.578126-8 8-8h80c4.417969 0 8 3.582031 8 8v16h24c35.328126-.039063 63.957032-28.671876 64-64v-32c0-4.417969 3.578126-8 8-8h16c22.078126.027343 39.972657 17.917968 40 40v64h78.636719c17.144531-.320313 31.640625 12.617187 33.265625 29.6875.621094 8.421874-2.121094 16.746093-7.632812 23.144531 3.527344 2.113281 6.628906 4.867187 9.144531 8.121093 24.832031-13.078124 41.941406-37.214843 46.050781-64.980468 4.109375-27.761719-5.269531-55.824219-25.25-75.53125zm0 0" fill="#fffbfb" data-original="#000000" style=""/></g></svg>
