<?xml version="1.0"?>
<svg xmlns="http://www.w3.org/2000/svg" xmlns:xlink="http://www.w3.org/1999/xlink" xmlns:svgjs="http://svgjs.com/svgjs" version="1.1" width="512" height="512" x="0" y="0" viewBox="0 0 455.731 455.731" style="enable-background:new 0 0 512 512" xml:space="preserve"><g>
<g xmlns="http://www.w3.org/2000/svg">
	<path d="M316.244,149.903L149.082,253.579c-2.943,1.825-4.282,5.409-3.255,8.717l22.423,72.253   c0.471,1.518,2.683,1.309,2.861-0.271l5.45-48.448c0.21-1.872,1.108-3.599,2.519-4.847l141.556-125.177   C324.025,152.81,320.089,147.518,316.244,149.903z" fill="#ffffff" data-original="#000000" style=""/>
	<path d="M0,0v455.731h455.731V0H0z M379.882,118.418l-52.031,248.76c-2.442,11.673-16.133,16.916-25.747,9.859l-78.559-57.665   l-40.039,40.881c-7.027,7.175-19.166,4.271-22.185-5.308l-28.901-91.706l-77.441-22.868c-10.16-3-10.759-17.165-0.888-21.012   l304.753-118.759C370.444,96.08,382.431,106.232,379.882,118.418z" fill="#ffffff" data-original="#000000" style=""/>
</g>
<g xmlns="http://www.w3.org/2000/svg">
</g>
<g xmlns="http://www.w3.org/2000/svg">
</g>
<g xmlns="http://www.w3.org/2000/svg">
</g>
<g xmlns="http://www.w3.org/2000/svg">
</g>
<g xmlns="http://www.w3.org/2000/svg">
</g>
<g xmlns="http://www.w3.org/2000/svg">
</g>
<g xmlns="http://www.w3.org/2000/svg">
</g>
<g xmlns="http://www.w3.org/2000/svg">
</g>
<g xmlns="http://www.w3.org/2000/svg">
</g>
<g xmlns="http://www.w3.org/2000/svg">
</g>
<g xmlns="http://www.w3.org/2000/svg">
</g>
<g xmlns="http://www.w3.org/2000/svg">
</g>
<g xmlns="http://www.w3.org/2000/svg">
</g>
<g xmlns="http://www.w3.org/2000/svg">
</g>
<g xmlns="http://www.w3.org/2000/svg">
</g>
</g></svg>
