<?xml version="1.0"?>
<svg xmlns="http://www.w3.org/2000/svg" xmlns:xlink="http://www.w3.org/1999/xlink" xmlns:svgjs="http://svgjs.com/svgjs" version="1.1" width="512" height="512" x="0" y="0" viewBox="0 0 512 512" style="enable-background:new 0 0 512 512" xml:space="preserve"><g><g xmlns="http://www.w3.org/2000/svg"><path d="m216.037 211.106c-27.084 0-42.369 24.265-45.109 46.81-1.902 15.651-6.964 31.185-11.76 43.19h56.869c24.813 0 45-20.187 45-45s-20.187-45-45-45z" fill="#ffffff" data-original="#000000" style=""/><path d="m497 20.894h-482c-8.284 0-15 6.716-15 15v265.213h126.473c4.758-10.164 12.486-28.817 14.674-46.811 2.39-19.655 10.592-37.72 23.096-50.863 13.696-14.397 32.091-22.326 51.795-22.326 3.598 0 7.135.271 10.6.763l87.794-87.795c8.498-8.5 19.799-13.181 31.819-13.181s23.321 4.681 31.82 13.182c8.498 8.498 13.181 19.799 13.181 31.818 0 12.02-4.683 23.32-13.183 31.82l-87.794 87.795c.491 3.464.763 6.999.763 10.598 0 16.871-5.604 32.456-15.041 45h236.003v-265.213c0-8.285-6.717-15-15-15z" fill="#ffffff" data-original="#000000" style=""/><path d="m278.58 214.777 78.276-78.277c2.834-2.834 4.395-6.601 4.395-10.606 0-4.006-1.561-7.772-4.395-10.605-2.834-2.835-6.6-4.395-10.606-4.395s-7.772 1.56-10.605 4.393l-78.277 78.278c8.411 5.577 15.635 12.8 21.212 21.212z" fill="#ffffff" data-original="#000000" style=""/><path d="m0 386.106c0 8.284 6.716 15 15 15h482c8.283 0 15-6.716 15-15v-55h-512z" fill="#ffffff" data-original="#000000" style=""/><path d="m331 461.106h-15v-30h-120v30h-15c-8.284 0-15 6.716-15 15s6.716 15 15 15h150c8.283 0 15-6.716 15-15s-6.717-15-15-15z" fill="#ffffff" data-original="#000000" style=""/></g></g></svg>
