<?xml version="1.0"?>
<svg xmlns="http://www.w3.org/2000/svg" xmlns:xlink="http://www.w3.org/1999/xlink" xmlns:svgjs="http://svgjs.com/svgjs" version="1.1" width="512" height="512" x="0" y="0" viewBox="0 0 550.801 550.8" style="enable-background:new 0 0 512 512" xml:space="preserve"><g>
<g xmlns="http://www.w3.org/2000/svg">
	<path d="M515.828,61.201H34.972C15.659,61.201,0,76.859,0,96.172v358.458C0,473.942,15.659,489.6,34.972,489.6h480.856   c19.314,0,34.973-15.658,34.973-34.971V96.172C550.801,76.859,535.143,61.201,515.828,61.201z M515.828,96.172V350.51l-68.92-62.66   c-10.359-9.416-26.289-9.04-36.186,0.866l-69.752,69.741L203.438,194.179c-10.396-12.415-29.438-12.537-39.99-0.271L34.972,343.219   V96.172H515.828z M367.201,187.972c0-26.561,21.523-48.086,48.084-48.086c26.562,0,48.086,21.525,48.086,48.086   c0,26.561-21.523,48.085-48.086,48.085C388.725,236.058,367.201,214.533,367.201,187.972z" fill="#ffffff" data-original="#000000" style=""/>
</g>
<g xmlns="http://www.w3.org/2000/svg">
</g>
<g xmlns="http://www.w3.org/2000/svg">
</g>
<g xmlns="http://www.w3.org/2000/svg">
</g>
<g xmlns="http://www.w3.org/2000/svg">
</g>
<g xmlns="http://www.w3.org/2000/svg">
</g>
<g xmlns="http://www.w3.org/2000/svg">
</g>
<g xmlns="http://www.w3.org/2000/svg">
</g>
<g xmlns="http://www.w3.org/2000/svg">
</g>
<g xmlns="http://www.w3.org/2000/svg">
</g>
<g xmlns="http://www.w3.org/2000/svg">
</g>
<g xmlns="http://www.w3.org/2000/svg">
</g>
<g xmlns="http://www.w3.org/2000/svg">
</g>
<g xmlns="http://www.w3.org/2000/svg">
</g>
<g xmlns="http://www.w3.org/2000/svg">
</g>
<g xmlns="http://www.w3.org/2000/svg">
</g>
</g></svg>
