<?xml version="1.0"?>
<svg xmlns="http://www.w3.org/2000/svg" xmlns:xlink="http://www.w3.org/1999/xlink" xmlns:svgjs="http://svgjs.com/svgjs" version="1.1" width="512" height="512" x="0" y="0" viewBox="0 0 469.333 469.333" style="enable-background:new 0 0 512 512" xml:space="preserve" class=""><g>
<g xmlns="http://www.w3.org/2000/svg">
	<g>
		<g>
			<path d="M426.667,85.333h-64V42.667C362.667,19.135,343.521,0,320,0H42.667C19.146,0,0,19.135,0,42.667v330.667     c0,4.313,2.604,8.208,6.583,9.854C7.896,383.74,9.292,384,10.667,384c2.771,0,5.5-1.083,7.542-3.125l82.208-82.208h6.25v42.667     c0,23.531,19.146,42.667,42.667,42.667h219.583l82.208,82.208c2.042,2.042,4.771,3.125,7.542,3.125     c1.375,0,2.771-0.26,4.083-0.813c3.979-1.646,6.583-5.542,6.583-9.854V128C469.333,104.469,450.188,85.333,426.667,85.333z      M96,277.333c-2.833,0-5.542,1.125-7.542,3.125l-67.125,67.125V42.667c0-11.76,9.563-21.333,21.333-21.333H320     c11.771,0,21.333,9.573,21.333,21.333V256c0,11.76-9.563,21.333-21.333,21.333H96z M448,432.917l-67.125-67.125     c-2-2-4.708-3.125-7.542-3.125h-224c-11.771,0-21.333-9.573-21.333-21.333v-42.667h192c23.521,0,42.667-19.135,42.667-42.667     V106.667h64C438.438,106.667,448,116.24,448,128V432.917z" fill="#727272" data-original="#000000" style=""/>
			<path d="M209.771,85.333c-9.792,0-19.458,5.031-28.438,14.677c-8.979-9.646-18.646-14.677-28.438-14.677     c-25.5,0-46.229,22.729-46.229,50.667c0,13.302,4.667,25.865,13.146,35.406l53.583,59.719c2.021,2.25,4.917,3.542,7.938,3.542     c3.021,0,5.917-1.292,7.938-3.542l53.625-59.76C251.333,161.865,256,149.302,256,136C256,108.062,235.271,85.333,209.771,85.333z      M226.979,157.156l-45.646,50.875l-45.604-50.833C130.75,151.594,128,144.062,128,136c0-16.177,11.167-29.333,24.896-29.333     c5.375,0,12.688,6.188,19.542,16.552c3.958,5.979,13.833,5.979,17.792,0c6.854-10.365,14.167-16.552,19.542-16.552     c13.729,0,24.896,13.156,24.896,29.333C234.667,144.062,231.917,151.594,226.979,157.156z" fill="#727272" data-original="#000000" style=""/>
		</g>
	</g>
</g>
<g xmlns="http://www.w3.org/2000/svg">
</g>
<g xmlns="http://www.w3.org/2000/svg">
</g>
<g xmlns="http://www.w3.org/2000/svg">
</g>
<g xmlns="http://www.w3.org/2000/svg">
</g>
<g xmlns="http://www.w3.org/2000/svg">
</g>
<g xmlns="http://www.w3.org/2000/svg">
</g>
<g xmlns="http://www.w3.org/2000/svg">
</g>
<g xmlns="http://www.w3.org/2000/svg">
</g>
<g xmlns="http://www.w3.org/2000/svg">
</g>
<g xmlns="http://www.w3.org/2000/svg">
</g>
<g xmlns="http://www.w3.org/2000/svg">
</g>
<g xmlns="http://www.w3.org/2000/svg">
</g>
<g xmlns="http://www.w3.org/2000/svg">
</g>
<g xmlns="http://www.w3.org/2000/svg">
</g>
<g xmlns="http://www.w3.org/2000/svg">
</g>
</g></svg>
