<?xml version="1.0"?>
<svg xmlns="http://www.w3.org/2000/svg" xmlns:xlink="http://www.w3.org/1999/xlink" xmlns:svgjs="http://svgjs.com/svgjs" version="1.1" width="512" height="512" x="0" y="0" viewBox="0 0 520.732 520.732" style="enable-background:new 0 0 512 512" xml:space="preserve" class=""><g>
<g xmlns="http://www.w3.org/2000/svg">
	<path d="M385.225,228.055V124.861C385.225,56.012,329.216,0,260.366,0c-68.85,0-124.855,56.012-124.855,124.861v103.193   c-29.819,31.101-48.193,73.249-48.193,119.63c0,95.424,77.628,173.048,173.048,173.048c95.423,0,173.048-77.624,173.048-173.048   C433.414,301.304,415.037,259.155,385.225,228.055z M260.366,39.126c47.271,0,85.735,38.459,85.735,85.735v72.604   c-25.301-14.499-54.553-22.835-85.735-22.835s-60.438,8.336-85.735,22.835v-72.604C174.631,77.585,213.09,39.126,260.366,39.126z    M289.332,478.425v-75.773c6.711-7.13,10.863-16.696,10.863-27.279c0-21.994-17.829-39.822-39.835-39.822   c-21.991,0-39.826,17.822-39.826,39.822c0,9.396,3.27,18.012,8.71,24.819v77.722c-58.885-14.065-102.806-67.102-102.806-130.234   c0-40.883,18.432-77.515,47.401-102.103h0.792v-0.673c23.245-19.431,53.137-31.14,85.735-31.14   c32.596,0,62.493,11.709,85.735,31.14v0.679h0.792c28.966,24.588,47.403,61.22,47.403,102.103   C394.297,411.585,349.298,465.139,289.332,478.425z" fill="#ffffff" data-original="#000000" style=""/>
</g>
<g xmlns="http://www.w3.org/2000/svg">
</g>
<g xmlns="http://www.w3.org/2000/svg">
</g>
<g xmlns="http://www.w3.org/2000/svg">
</g>
<g xmlns="http://www.w3.org/2000/svg">
</g>
<g xmlns="http://www.w3.org/2000/svg">
</g>
<g xmlns="http://www.w3.org/2000/svg">
</g>
<g xmlns="http://www.w3.org/2000/svg">
</g>
<g xmlns="http://www.w3.org/2000/svg">
</g>
<g xmlns="http://www.w3.org/2000/svg">
</g>
<g xmlns="http://www.w3.org/2000/svg">
</g>
<g xmlns="http://www.w3.org/2000/svg">
</g>
<g xmlns="http://www.w3.org/2000/svg">
</g>
<g xmlns="http://www.w3.org/2000/svg">
</g>
<g xmlns="http://www.w3.org/2000/svg">
</g>
<g xmlns="http://www.w3.org/2000/svg">
</g>
</g></svg>
