<?xml version="1.0"?>
<svg xmlns="http://www.w3.org/2000/svg" xmlns:xlink="http://www.w3.org/1999/xlink" xmlns:svgjs="http://svgjs.com/svgjs" version="1.1" width="512" height="512" x="0" y="0" viewBox="0 0 32 32" style="enable-background:new 0 0 512 512" xml:space="preserve"><g><rect xmlns="http://www.w3.org/2000/svg" fill="#f5e6fd" height="30" rx="6" width="30" x="1" y="1" data-original="#f5e6fd" style=""/><path xmlns="http://www.w3.org/2000/svg" d="m16 8c-4.4183 0-8 3.5817-8 8s3.5817 8 8 8 8-3.5817 8-8-3.5817-8-8-8z" fill="#bd63f9" data-original="#bd63f9" style=""/><g xmlns="http://www.w3.org/2000/svg" clip-rule="evenodd" fill="#d9a5fb" fill-rule="evenodd"><path d="m14.3255 13.0233c.3083 0 .5582.2498.5582.5581v4.8372c0 .3083-.2499.5581-.5582.5581-.3082 0-.5581-.2498-.5581-.5581v-4.8372c0-.3083.2499-.5581.5581-.5581z" fill="#d9a5fb" data-original="#d9a5fb" style=""/><path d="m17.6744 13.0233c.3083 0 .5581.2498.5581.5581v4.8372c0 .3083-.2498.5581-.5581.5581-.3082 0-.5581-.2498-.5581-.5581v-4.8372c0-.3083.2499-.5581.5581-.5581z" fill="#d9a5fb" data-original="#d9a5fb" style=""/></g></g></svg>
