<svg fill="none" height="512" viewBox="0 0 32 32" width="512" xmlns="http://www.w3.org/2000/svg"><rect fill="#fbe7e3" height="30" rx="6" width="30" x="1" y="1"/><g clip-rule="evenodd" fill-rule="evenodd"><path d="m16 8c-4.4183 0-8 3.5817-8 8s3.5817 8 8 8 8-3.5817 8-8-3.5817-8-8-8z" fill="#fc573b"/><path d="m14.4354 11.8058c-.1721-.1076-.3889-.1133-.5664-.0149s-.2876.2853-.2876.4882v7.4418c0 .2029.1101.3898.2876.4882s.3943.0927.5664-.0149l5.9535-3.7209c.1632-.102.2623-.2809.2623-.4733s-.0991-.3713-.2623-.4733z" fill="#f9aa9d"/></g></svg>