<?xml version="1.0"?>
<svg xmlns="http://www.w3.org/2000/svg" xmlns:xlink="http://www.w3.org/1999/xlink" xmlns:svgjs="http://svgjs.com/svgjs" version="1.1" width="512" height="512" x="0" y="0" viewBox="0 0 32 32" style="enable-background:new 0 0 512 512" xml:space="preserve" class=""><g><rect xmlns="http://www.w3.org/2000/svg" fill="#f5e6fd" height="30" rx="6" width="30" x="1" y="1" data-original="#f5e6fd" style=""/><g xmlns="http://www.w3.org/2000/svg" clip-rule="evenodd" fill-rule="evenodd"><path d="m16 8c-4.4183 0-8 3.5817-8 8s3.5817 8 8 8 8-3.5817 8-8-3.5817-8-8-8z" fill="#bd63f9" data-original="#bd63f9" style="" class=""/><path d="m18.7907 13.0233c0-.2146-.123-.4101-.3164-.5031-.1933-.0929-.4229-.0668-.5904.0672l-3.7209 2.9768c-.1324.1059-.2095.2663-.2095.4358 0 .1696.0771.3299.2095.4358l3.7209 2.9768c.1675.134.3971.1601.5904.0672.1934-.0929.3164-.2885.3164-.503z" fill="#d9a5fb" data-original="#d9a5fb" style="" class=""/><path d="m13.0232 12.4651c.3083 0 .5582.2499.5582.5582v5.9534c0 .3083-.2499.5582-.5582.5582-.3082 0-.5581-.2499-.5581-.5582v-5.9534c0-.3083.2499-.5582.5581-.5582z" fill="#d9a5fb" data-original="#d9a5fb" style="" class=""/></g></g></svg>
