<?xml version="1.0"?>
<svg xmlns="http://www.w3.org/2000/svg" xmlns:xlink="http://www.w3.org/1999/xlink" xmlns:svgjs="http://svgjs.com/svgjs" version="1.1" width="512" height="512" x="0" y="0" viewBox="0 0 512 512" style="enable-background:new 0 0 512 512" xml:space="preserve" class=""><g>
<g xmlns="http://www.w3.org/2000/svg">
	<g>
		<path d="M451.254,114.983L451,114c21.693-13.005,39.209-34.444,47-59c-20.318,12.087-44.092,21.257-68,26    c-19.172-20.426-44.752-33-75-33c-57.975,0-106,46.937-106,105c0,8.262,1.167,16.35,3,24v1c-86.407-4.936-164.642-48.88-216-112    c-9.013,15.53-14,37.722-14,57c0,30,17.814,70.181,46,89v2c-16.83-0.679-34.068-12.273-48-20c0,0.459,0.61,1.011,0.61,1.47    c0,50.949,37.344,94.891,85.39,104.53c-8.373,2.215-20.166,4-29,4c-6.798,0-13.584-1.776-20-3c13.367,41.769,52,69,98,69v1    c-35.805,27.758-81.188,47-130,47c-8.479,0-19-1-25-2c46.441,29.835,101.65,48,161,48c193.174,0,299-159,299-298v-14    c20.547-14.841,37.945-34.886,52-56C512,96,475.134,113.469,451.254,114.983z M420,166c0,30.012-5.878,61.528-17,91.14    c-11.688,31.121-28.511,59.202-50.001,83.462C319.296,378.648,258.629,424,161,424c-2.869,0-5.733-0.05-8.597-0.149    c9.426-5.468,18.485-11.555,27.105-18.238L195,393.603V374v-4v-40l-16.479-0.183c-18.019-0.2-32.521-14.863-32.521-32.883v-32.706    l-21.631-4.885C114.797,257.181,108,248.678,108,238.865V214v-3l-0.5-20.389l-17.789-11.877    c-7.682-6.463-14.644-15.694-19.604-25.684c52.489,38.278,114.827,61.184,179.612,64.885L292,220.35V178v-1v-4.725l-1.101-4.595    C289.639,162.421,289,157.482,289,153c0-17.224,6.872-33.488,19.35-45.797C320.903,94.82,337.471,88,355,88    c17.723,0,33.145,6.855,45.835,20.375l10.206,10.873l1.234,4.77l0.254,0.983l7.471,28.88V166z" fill="#ffffff" data-original="#000000" style="" class=""/>
	</g>
</g>
<g xmlns="http://www.w3.org/2000/svg">
</g>
<g xmlns="http://www.w3.org/2000/svg">
</g>
<g xmlns="http://www.w3.org/2000/svg">
</g>
<g xmlns="http://www.w3.org/2000/svg">
</g>
<g xmlns="http://www.w3.org/2000/svg">
</g>
<g xmlns="http://www.w3.org/2000/svg">
</g>
<g xmlns="http://www.w3.org/2000/svg">
</g>
<g xmlns="http://www.w3.org/2000/svg">
</g>
<g xmlns="http://www.w3.org/2000/svg">
</g>
<g xmlns="http://www.w3.org/2000/svg">
</g>
<g xmlns="http://www.w3.org/2000/svg">
</g>
<g xmlns="http://www.w3.org/2000/svg">
</g>
<g xmlns="http://www.w3.org/2000/svg">
</g>
<g xmlns="http://www.w3.org/2000/svg">
</g>
<g xmlns="http://www.w3.org/2000/svg">
</g>
</g></svg>
