<svg id="SvgjsSvg1031" width="288" height="288" xmlns="http://www.w3.org/2000/svg" version="1.1" xmlns:xlink="http://www.w3.org/1999/xlink" xmlns:svgjs="http://svgjs.com/svgjs"><defs id="SvgjsDefs1032"></defs><g id="SvgjsG1033" transform="matrix(1,0,0,1,0,0)"><svg xmlns="http://www.w3.org/2000/svg" style="isolation:isolate" width="288" height="288" viewBox="0 0 512 512"><defs><clipPath id="a"><rect width="512" height="512" fill="#121212" class="color000 svgShape"></rect></clipPath></defs><g clip-path="url(#a)" fill="#121212" class="color000 svgShape"><path fill="#121212" d="M29.31 347.58C29.31 350.5 28.15 353.3 26.09 355.36 24.03 357.42 21.23 358.58 18.31 358.58 15.4 358.58 12.6 357.42 10.53 355.36 8.47 353.3 7.31 350.5 7.31 347.58L7.31 51.68 151.77 51.68 151.77 99.68 493.69 99.68C496.6 99.68 499.4 100.84 501.47 102.9 503.53 104.96 504.69 107.76 504.69 110.68 504.69 113.6 503.53 116.4 501.47 118.46 499.4 120.52 496.6 121.68 493.69 121.68L129.77 121.68 129.77 73.68 29.31 73.68 29.31 347.58zM482.69 164.31C482.69 161.39 483.85 158.59 485.91 156.53 487.97 154.47 490.77 153.31 493.69 153.31 496.6 153.31 499.4 154.47 501.47 156.53 503.53 158.59 504.69 161.39 504.69 164.31L504.69 412.32 18.31 412.32C15.4 412.32 12.6 411.16 10.53 409.1 8.47 407.04 7.31 404.24 7.31 401.32 7.31 398.4 8.47 395.6 10.53 393.54 12.6 391.48 15.4 390.32 18.31 390.32L482.69 390.32 482.69 164.31z" class="color2D2D2D svgShape"></path><path fill="#121212" fill-rule="evenodd" d=" M 167.58 256 C 167.57 244.18 169.94 232.48 174.54 221.6 C 178.99 211.09 185.42 201.55 193.49 193.49 C 201.55 185.42 211.09 178.99 221.59 174.54 C 232.48 169.94 244.18 167.57 256 167.58 C 267.82 167.57 279.52 169.94 290.41 174.54 C 300.91 178.99 310.45 185.42 318.51 193.49 C 326.58 201.55 333.01 211.09 337.46 221.59 C 342.06 232.48 344.43 244.18 344.42 256 C 344.43 267.82 342.06 279.52 337.46 290.41 C 333.01 300.91 326.58 310.45 318.51 318.51 C 310.45 326.58 300.91 333.01 290.41 337.46 C 279.52 342.06 267.82 344.43 256 344.42 C 244.18 344.43 232.48 342.06 221.59 337.46 C 211.09 333.01 201.55 326.58 193.49 318.51 C 185.42 310.45 178.99 300.91 174.54 290.41 C 169.94 279.52 167.57 267.82 167.58 256 Z  M 189.58 256 C 189.57 247.12 191.35 238.33 194.8 230.16 C 198.15 222.27 202.98 215.1 209.05 209.05 C 215.1 202.98 222.27 198.15 230.16 194.8 C 238.34 191.35 247.13 189.57 256 189.58 C 264.87 189.57 273.66 191.35 281.84 194.8 C 289.73 198.15 296.9 202.98 302.95 209.05 C 309.02 215.1 313.85 222.27 317.2 230.16 C 320.65 238.34 322.43 247.13 322.42 256 C 322.43 264.87 320.65 273.66 317.2 281.84 C 313.85 289.73 309.02 296.9 302.95 302.95 C 296.9 309.02 289.73 313.85 281.84 317.2 C 273.66 320.65 264.87 322.43 256 322.42 C 247.13 322.43 238.34 320.65 230.16 317.2 C 222.27 313.85 215.1 309.02 209.05 302.95 C 202.98 296.9 198.15 289.73 194.8 281.84 C 191.35 273.66 189.57 264.87 189.58 256 Z " class="color2D2D2D svgShape"></path></g></svg></g></svg>