<svg id="SvgjsSvg1022" width="288" height="288" xmlns="http://www.w3.org/2000/svg" version="1.1" xmlns:xlink="http://www.w3.org/1999/xlink" xmlns:svgjs="http://svgjs.com/svgjs"><defs id="SvgjsDefs1023"></defs><g id="SvgjsG1024" transform="matrix(1,0,0,1,0,0)"><svg xmlns="http://www.w3.org/2000/svg" viewBox="0 0 50 50" width="288" height="288"><path d="M25 2C12.31 2 2 12.31 2 25s10.31 23 23 23 23-10.31 23-23S37.69 2 25 2zm0 2c7.988 0 14.926 4.445 18.477 11H25a1 1 0 0 0-.113.006c-5.148.058-9.375 4.03-9.84 9.072L8.035 12.65C11.852 7.414 18.015 4 25 4zM6.824 14.502l9.653 15.728a1 1 0 0 0 .115.159 1 1 0 0 0 .002.004C18.375 33.159 21.474 35 25 35a9.926 9.926 0 0 0 3.977-.83L22.32 45.824C11.98 44.51 4 35.701 4 25c0-3.83 1.038-7.408 2.824-10.498zM25 17c4.43 0 8 3.57 8 8 0 1.421-.37 2.752-1.016 3.906a1 1 0 0 0-.002.002 1 1 0 0 0-.035.059A7.978 7.978 0 0 1 25 33c-4.43 0-8-3.57-8-8s3.57-8 8-8zm5.973 0h13.449A20.965 20.965 0 0 1 46 25c0 11.61-9.39 21-21 21-.158 0-.314-.008-.47-.012l9.154-16.029a1 1 0 0 0 .058-.117A9.928 9.928 0 0 0 35 25c0-3.271-1.589-6.174-4.027-8z" font-family="sans-serif" font-weight="400" overflow="visible" style="line-height:normal;text-indent:0;text-align:start;text-decoration-line:none;text-decoration-style:solid;text-decoration-color:#000;text-transform:none;block-progression:tb;isolation:auto;mix-blend-mode:normal" fill="#121212" class="color000 svgShape"></path></svg></g></svg>