<svg id="SvgjsSvg1001" width="288" height="288" xmlns="http://www.w3.org/2000/svg" version="1.1" xmlns:xlink="http://www.w3.org/1999/xlink" xmlns:svgjs="http://svgjs.com/svgjs"><defs id="SvgjsDefs1002"></defs><g id="SvgjsG1008" transform="matrix(1,0,0,1,0,0)"><svg xmlns="http://www.w3.org/2000/svg" viewBox="0 0 50 50" width="288" height="288"><path d="M25.104 1.955A22.965 22.965 0 0 0 8.686 8.84c-.288-.625-.56-1.44-.73-2.563a1 1 0 0 0-1.73-.521C4.682 7.46 4.085 9.802 3.804 11.709c-.253 1.713-.204 2.823-.196 3.094-1.019 1.49-1.713 2.632-2.09 3.48-.404.911-.525 1.626-.525 2.192 0 .407.023.667.067.882.021.108.046.206.091.311.023.052.05.105.086.162.036.057.141.176.141.176a1 1 0 0 0 .473.264c-.241 1.044-.49 2.254-.49 3.72 0 4.51 1.998 9.936 5.945 14.309 3.947 4.373 9.9 7.656 17.674 7.656 9.36 0 15.471-5.204 19.097-10.953 3.626-5.749 4.916-11.94 4.916-14.78 0-1.86-.332-3.236-.426-3.626a1 1 0 0 0-1.093-.76c-.112-.85-.072-1.426-.293-2.365-.539-2.29-1.409-4.68-3.035-6.282a1 1 0 0 0-1.627.338c-.428-.477-.718-.974-1.291-1.416-.52-.4-1.11-.771-1.758-1.115a1 1 0 0 0-.153-.137 22.95 22.95 0 0 0-14.212-4.904zm0 2c2.354 0 4.613.394 6.724 1.106A29.552 29.552 0 0 0 30.096 5h-.002a1 1 0 0 0-.004 2h.004c.008 0 .011.004.02.004 1.13.004 2.072.363 2.81.799-.305.067-.65.124-.87.2a1 1 0 0 0-.058 1.864c2.278.969 4.587 2.113 6.166 3.436.914.765 1.47 1.56 1.809 2.402-.213-.069-.363-.237-.65-.219a1 1 0 0 0-.83 1.446c.755 1.507.794 3.438.614 5.437-.018-.021-.125-.17-.125-.17a1 1 0 0 0-1.74.828s.302 1.748.155 3.952c-.059.87-.27 1.792-.51 2.693a1 1 0 0 0-1.512.191s-.95 1.452-2.498 2.91c-1.547 1.459-3.635 2.82-5.762 2.82-2.92 0-4.703-.901-6.031-1.833 1.459-.242 2.774-.637 3.744-1.166a12.495 12.495 0 0 0 2.33-1.643c.126-.11.281-.232.15-.139v.002c.229-.163.28-.164.28-.164s.066-.004.326.067c.55.149.985-.002 1.363-.264.38-.262.725-.75.725-1.35 0-.509-.196-.854-.43-1.187a4.055 4.055 0 0 0-.918-.92 5.128 5.128 0 0 0-3.05-.994H25.6c-1.39 0-2.322.567-2.934.97-.612.404-.9.64-1.81.64-.662 0-1.856-.684-2.782-1.522a12.91 12.91 0 0 1-1.152-1.192 6.93 6.93 0 0 1-.242-.302c.015-.104.014-.203.052-.284.06-.123.143-.173.352-.222.709.118 1.359.244 1.848.348.55.116.839.213 1.277.232a1 1 0 0 0 1.027-.822c.197-1.102 0-2.099-.25-2.85-.122-.367-.182-.43-.302-.68.306-.28.638-.588 1.103-.92.644-.459 1.143-.77 1.379-.935a1 1 0 0 0 .002-.002c.383-.268.63-.59.844-.943.213-.354.406-.69.406-1.247 0-.527-.348-.978-.611-1.162-.264-.184-.532-.24-.532-.24a1 1 0 0 0-.183-.023s-.498-.02-1.328-.09h-.002c-1.473-.124-1.079-.103-1.924-.85a1 1 0 0 0 0-.002c-.328-.289-.738-.751-1.047-1.09.036-.145.008-.18.268-.675.403-.77 1.187-1.917 2.71-3.293a1 1 0 0 0-.67-1.742c-1.703 0-3.319.882-4.601 1.695-1.057.67-1.574 1.126-1.83 1.342-.373-.136-.685-.325-1.627-.325-1.423 0-2.367.262-2.99.487a20.948 20.948 0 0 1 15.053-6.348zM35.81 7.752c1.773.494 3.181 1.162 4.195 1.943 1.906 1.469 2.73 3.232 3.139 4.551a1 1 0 0 0 1.664.406c.135.434.32.834.423 1.278.495 2.102.66 4.213.66 5.306a1 1 0 0 0 1.098.994c-.001 2.175-1.224 8.343-4.605 13.704C39 41.298 33.608 45.955 24.979 45.955c-7.216 0-12.575-2.99-16.19-6.996-3.615-4.005-5.43-9.063-5.43-12.969 0-2.976.989-5.34.989-5.34A1 1 0 0 0 3.3 19.271c.032-.08.004-.083.045-.175.32-.721.939-1.797 2.062-3.414a1 1 0 0 0 .178-.612s-.057-1.357.195-3.068c.146-.987.45-2.024.85-2.992.277.74.583 1.365.9 1.847a1 1 0 0 0 .403.516c.64.728 1.287 1.06 1.287 1.06a1 1 0 0 0 .855-.025s1.147-.592 2.965-.592c.915 0 1.461.268 1.461.268a1 1 0 0 0 1.088-.148s.834-.724 1.978-1.45c.092-.058.202-.097.297-.154-.191.294-.446.625-.578.877-.52.99-.63 1.744-.63 1.744a1 1 0 0 0 .243.781s.928 1.065 1.614 1.67c.74.654 1.395 1.202 3.082 1.344.282.024.254.017.46.031-.006.006-.032.042-.035.043.021-.014-.701.452-1.396.948-.695.495-1.434 1.025-1.938 1.666a1 1 0 0 0-.107 1.066c.141.282.328.585.508 1.127.08.238.038.546.078.82a38.639 38.639 0 0 0-2.006-.379 1 1 0 0 0-.305-.002c-.95.142-1.638.781-1.925 1.381a3.11 3.11 0 0 0-.295 1.383 1 1 0 0 0 .037.272c.071.254.115.273.16.345.045.073.092.142.147.217.109.15.246.326.416.525.338.4.796.891 1.337 1.381 1.083.98 2.46 2.04 4.123 2.04 1.38 0 2.304-.568 2.913-.97.608-.4.905-.64 1.834-.64.774 0 1.421.276 1.86.602.045.032.056.059.095.091-.09 0-.153-.038-.248-.025-.433.06-.81.263-1.166.517a1 1 0 0 0-.002.002c-.2.143-.197.165-.309.264a10.536 10.536 0 0 1-1.965 1.385c-1.287.702-3.08 1.33-5.33 1.146a1 1 0 0 0-.767 1.725c.77.728 3.905 3.885 9.343 3.885 2.94 0 5.4-1.731 7.135-3.365.326-.307.25-.32.525-.616-.01.028.001.05-.01.076a1 1 0 0 0 1.63 1.088c2.185-2.156 2.833-5.206 2.998-7.664.012-.184-.021-.154-.014-.332a1 1 0 0 0 1.258-.736c.528-2.325.87-4.864.484-7.244a1 1 0 0 0 1.14-.834c.385-2.515-.945-4.632-2.814-6.197-1.033-.866-2.253-1.596-3.527-2.26a1 1 0 0 0 .324-1.082c-.086-.269-.276-.464-.431-.676z" font-family="sans-serif" font-weight="400" overflow="visible" style="line-height:normal;text-indent:0;text-align:start;text-decoration-line:none;text-decoration-style:solid;text-decoration-color:#000;text-transform:none;block-progression:tb;isolation:auto;mix-blend-mode:normal" fill="#F5F5F5" class="color000 svgShape"></path></svg></g></svg>