<svg id="SvgjsSvg1001" width="288" height="288" xmlns="http://www.w3.org/2000/svg" version="1.1" xmlns:xlink="http://www.w3.org/1999/xlink" xmlns:svgjs="http://svgjs.com/svgjs"><defs id="SvgjsDefs1002"></defs><g id="SvgjsG1008" transform="matrix(1,0,0,1,0,0)"><svg xmlns="http://www.w3.org/2000/svg" data-name="Layer 1" viewBox="0 0 32 32" width="288" height="288"><path d="M17.55,22.87a1,1,0,0,1-.92-.61l-.57-.89c-.39-.61-.93-1.44-1.52-2.38C11.45,14,10,10.67,10,8.72a7.61,7.61,0,0,1,15.21,0c0,2.44-2.42,6.9-4.45,10.21C18.27,22.87,18.13,22.87,17.55,22.87Zm0-19.74A5.6,5.6,0,0,0,12,8.72c0,.87.56,3.22,4.29,9.21.51.83,1,1.57,1.36,2.14.37-.56.86-1.31,1.4-2.19,2.64-4.3,4.16-7.64,4.16-9.16A5.61,5.61,0,0,0,17.55,3.13Z" fill="#506070" class="color000 svgShape"></path><path d="M17.7 30.88a1 1 0 0 1-.58-.19c-1.71-1.21-3.64-2.54-4.27-2.92l-9.46.67a1 1 0 0 1-1-.54 1 1 0 0 1 .13-1.1l7-8.2a1 1 0 0 1 .61-.34l5.07-.79a1 1 0 0 1 1 .46c.51.83 1 1.57 1.36 2.14.37-.56.86-1.31 1.4-2.19a1 1 0 0 1 1-.47l5.56.79a1 1 0 0 1 .81.68c3.31 10 3.31 10.2 3.31 10.4a1 1 0 0 1-.62.92 1 1 0 0 1-.95-.1c-.37-.21-2.68-1.3-4.87-2.32l-5 3A1 1 0 0 1 17.7 30.88zm-4.63-5.13c.36 0 .52 0 4.68 2.94l4.93-2.9a1 1 0 0 1 .92 0L27 27.35c-.64-2-1.61-5-2.37-7.26l-4.31-.61c-2.11 3.39-2.26 3.39-2.81 3.39a1 1 0 0 1-.92-.61l-.57-.89c-.31-.49-.72-1.11-1.17-1.82l-4.05.63L5.63 26.27C9.32 26 12.9 25.75 13.07 25.75zM17.46 11.25a2.93 2.93 0 1 1 2.93-2.93A2.93 2.93 0 0 1 17.46 11.25zm0-3.86a.93.93 0 1 0 .93.93A.93.93 0 0 0 17.46 7.39z" fill="#506070" class="color000 svgShape"></path></svg></g></svg>