<svg id="SvgjsSvg1001" width="288" height="288" xmlns="http://www.w3.org/2000/svg" version="1.1" xmlns:xlink="http://www.w3.org/1999/xlink" xmlns:svgjs="http://svgjs.com/svgjs"><defs id="SvgjsDefs1002"></defs><g id="SvgjsG1008" transform="matrix(1,0,0,1,0,0)"><svg xmlns="http://www.w3.org/2000/svg" enable-background="new 0 0 32 32" viewBox="0 0 32 32" width="288" height="288"><path fill="#abffda" d="m26 32h-20c-3.314 0-6-2.686-6-6v-20c0-3.314 2.686-6 6-6h20c3.314 0 6 2.686 6 6v20c0 3.314-2.686 6-6 6z" class="colorffe6e2 svgShape"></path><path fill="#00ff1c" d="m16 24c4.416 0 8-3.584 8-8s-3.584-8-8-8-8 3.584-8 8 3.584 8 8 8zm3.248-4.229c-.538.001-2.238-1.885-7.013-.906-.126.032-.29.084-.384.084-.61 0-.727-.912-.071-1.052 2.642-.584 5.342-.532 7.645.845.197.126.313.239.313.532s-.229.497-.49.497zm.869-2.116c-.102-.027-.041.052-.398-.136-3.816-2.258-7.871-.864-8.081-.864-.714 0-.904-1.074-.125-1.293 3.144-.883 6.516-.368 8.864 1.029.262.155.365.355.365.635-.003.348-.274.629-.625.629zm-9.085-4.99c3.015-.883 7.579-.604 10.416 1.052.728.419.441 1.48-.332 1.48l-.001-.001c-.168 0-.271-.042-.416-.126-2.296-1.371-6.403-1.7-9.061-.958-.116.032-.262.084-.416.084-.426 0-.751-.332-.751-.761 0-.438.271-.686.561-.77z" class="colorfc573b svgShape"></path></svg></g></svg>