<svg id="SvgjsSvg1028" width="288" height="288" xmlns="http://www.w3.org/2000/svg" version="1.1" xmlns:xlink="http://www.w3.org/1999/xlink" xmlns:svgjs="http://svgjs.com/svgjs"><defs id="SvgjsDefs1029"></defs><g id="SvgjsG1030" transform="matrix(1,0,0,1,0,0)"><svg xmlns="http://www.w3.org/2000/svg" width="288" height="288" viewBox="0 0 24 24"><path d="M19 24H5c-2.8 0-5-2.2-5-5V5c0-2.8 2.2-5 5-5h14c2.8 0 5 2.2 5 5v14c0 2.8-2.2 5-5 5zM5 2C3.3 2 2 3.3 2 5v14c0 1.7 1.3 3 3 3h14c1.7 0 3-1.3 3-3V5c0-1.7-1.3-3-3-3H5z" fill="#405060" class="color000 svgShape"></path><path d="M9 10c-.3 0-.5-.1-.7-.3l-3-3c-.4-.4-.4-1 0-1.4s1-.4 1.4 0l3 3c.4.4.4 1 0 1.4-.2.2-.4.3-.7.3z" fill="#405060" class="color000 svgShape"></path><path d="M6 13c-.3 0-.5-.1-.7-.3-.4-.4-.4-1 0-1.4l3-3c.4-.4 1-.4 1.4 0s.4 1 0 1.4l-3 3c-.2.2-.4.3-.7.3zm9 0h-4c-.6 0-1-.4-1-1s.4-1 1-1h4c.6 0 1 .4 1 1s-.4 1-1 1z" fill="#405060" class="color000 svgShape"></path></svg></g></svg>