<svg id="SvgjsSvg1001" width="288" height="288" xmlns="http://www.w3.org/2000/svg" version="1.1" xmlns:xlink="http://www.w3.org/1999/xlink" xmlns:svgjs="http://svgjs.com/svgjs"><defs id="SvgjsDefs1002"></defs><g id="SvgjsG1008" transform="matrix(1,0,0,1,0,0)"><svg xmlns="http://www.w3.org/2000/svg" width="288" height="288" viewBox="0 0 14 16"><path fill="#121212" fill-rule="evenodd" d="M7 10h4v1H7v-1zm-3 1l3-3-3-3-.75.75L5.5 8l-2.25 2.25L4 11zm10-8v10c0 .55-.45 1-1 1H1c-.55 0-1-.45-1-1V3c0-.55.45-1 1-1h12c.55 0 1 .45 1 1zm-1 0H1v10h12V3z" class="color000 svgShape"></path></svg></g></svg>