<svg id="SvgjsSvg1013" width="288" height="288" xmlns="http://www.w3.org/2000/svg" version="1.1" xmlns:xlink="http://www.w3.org/1999/xlink" xmlns:svgjs="http://svgjs.com/svgjs"><defs id="SvgjsDefs1014"></defs><g id="SvgjsG1015" transform="matrix(1,0,0,1,0,0)"><svg xmlns="http://www.w3.org/2000/svg" enable-background="new 0 0 24 24" viewBox="0 0 24 24" width="288" height="288"><path d="M12,16.958c-2.761,0-5.006-2.225-5.006-4.958S9.239,7.042,12,7.042S17.006,9.266,17.006,12S14.761,16.958,12,16.958z M12,8.542c-1.934,0-3.506,1.551-3.506,3.458s1.573,3.458,3.506,3.458s3.506-1.551,3.506-3.458S13.934,8.542,12,8.542z" fill="#405060" class="color000 svgShape"></path><path d="M12,24C5.383,24,0,18.617,0,12S5.383,0,12,0s12,5.383,12,12S18.617,24,12,24z M12,1.5C6.21,1.5,1.5,6.21,1.5,12S6.21,22.5,12,22.5S22.5,17.79,22.5,12S17.79,1.5,12,1.5z" fill="#405060" class="color000 svgShape"></path><path d="M11.914 8.549c-.413 0-.748-.333-.75-.747-.002-.414.333-.751.747-.753L22.352 7c.001 0 .002 0 .003 0 .413 0 .748.333.75.747.002.414-.333.751-.747.753L11.917 8.549C11.917 8.549 11.915 8.549 11.914 8.549zM11.313 23.981c-.109 0-.22-.023-.324-.074-.374-.179-.531-.627-.351-1l4.519-9.401c.179-.374.628-.532 1-.351.374.179.531.627.351 1l-4.519 9.401C11.86 23.824 11.592 23.981 11.313 23.981zM8.578 15.25c-.224 0-.445-.1-.593-.29L1.666 6.83C1.412 6.502 1.471 6.031 1.798 5.777c.328-.254.798-.195 1.053.132L9.17 14.04c.254.327.195.798-.132 1.053C8.901 15.199 8.739 15.25 8.578 15.25z" fill="#405060" class="color000 svgShape"></path></svg></g></svg>