<?xml version="1.0"?>
<svg xmlns="http://www.w3.org/2000/svg" xmlns:xlink="http://www.w3.org/1999/xlink" xmlns:svgjs="http://svgjs.com/svgjs" version="1.1" width="512" height="512" x="0" y="0" viewBox="0 0 512 512" style="enable-background:new 0 0 512 512" xml:space="preserve" class=""><g><g xmlns="http://www.w3.org/2000/svg"><path d="m437.02 74.98c-48.353-48.351-112.64-74.98-181.02-74.98s-132.667 26.629-181.02 74.98c-48.351 48.353-74.98 112.64-74.98 181.02s26.629 132.667 74.98 181.02c48.353 48.351 112.64 74.98 181.02 74.98s132.667-26.629 181.02-74.98c48.351-48.353 74.98-112.64 74.98-181.02s-26.629-132.667-74.98-181.02zm34.96 166.02v30h-40.032v-30zm-351.001-98.808-28.307-28.307 21.213-21.213 28.307 28.307zm21.213 248.829-28.307 28.307-21.213-21.213 28.307-28.307zm219.7-150.021v30h-120.892v-120.892h30v90.892zm-90.892-160.948h-30v-40.032h30zm-30 351.896h30v40.032h-30zm128.808-40.927 21.213-21.213 28.307 28.307-21.213 21.213zm21.213-248.829-21.213-21.213 28.307-28.307 21.213 21.213zm-310.969 98.808v30h-40.032v-30z" fill="#ffffff" data-original="#000000" style="" class=""/></g></g></svg>
